# AST/ASF file generated using VICON BodyLanguage
# -----------------------------------------------
:version 1.10
:name VICON
:units
  mass 1.0
  length 0.45
  angle deg
:documentation
   .ast/.asf automatically generated from VICON data using
   VICON BodyBuilder and BodyLanguage model FoxedUp or BRILLIANT.MOD
:root
   order TX TY TZ RX RY RZ
   axis XYZ
   position 0 0 0  
   orientation 0 0 0 
:bonedata
  begin
     id 1 
     name lhipjoint
     direction 0.570549 -0.739093 0.358072 
     length 2.41801 
     axis 0 0 0  XYZ
  end
  begin
     id 2 
     name lfemur
     direction 0.34202 -0.939693 0  
     length 7.44434  
     axis 0 0 20  XYZ
    dof rx ry rz
    limits (-160.0 20.0)
           (-70.0 70.0)
           (-60.0 70.0)
  end
  begin
     id 3 
     name ltibia
     direction 0.34202 -0.939693 0   
     length 7.60047   
     axis 0 0 20   XYZ
    dof rx
    limits (-10.0 170.0)
  end
  begin
     id 4 
     name lfoot
     direction 0.0909041 -0.249757 0.964032   
     length 2.03437   
     axis -90 7.62852e-016 20   XYZ
    dof rx rz
    limits (-45.0 90.0)
           (-70.0 20.0)
  end
  begin
     id 5 
     name ltoes
     direction 1.53547e-011 -4.2174e-011 1   
     length 1.02054   
     axis -90 7.62852e-016 20   XYZ
    dof rx
    limits (-90.0 20.0)
  end
  begin
     id 6 
     name rhipjoint
     direction -0.558096 -0.746754 0.361784   
     length 2.3932  
     axis 0 0 0  XYZ 
  end
  begin
     id 7 
     name rfemur
     direction -0.34202 -0.939693 0   
     length 7.3886   
     axis 0 0 -20   XYZ
    dof rx ry rz
    limits (-160.0 20.0)
           (-70.0 70.0)
           (-70.0 60.0)
  end
  begin
     id 8 
     name rtibia
     direction -0.34202 -0.939693 0   
     length 7.4839   
     axis 0 0 -20   XYZ
    dof rx
    limits (-10.0 170.0)
 end
 begin
     id 9 
     name rfoot
     direction -0.114619 -0.314914 0.942174   
     length 2.25127  
     axis -90 -7.62852e-016 -20   XYZ
    dof rx rz
    limits (-45.0 90.0)
           (-20.0 70.0)
  end
  begin
     id 10 
     name rtoes
     direction -1.53518e-011 -4.21881e-011 1   
     length 1.11821   
     axis -90 -7.62852e-016 -20   XYZ
    dof rx
    limits (-90.0 20.0)
  end
  begin
     id 11 
     name lowerback
     direction -0.00902269 0.996426 -0.0839821   
     length 2.25052   
     axis 0 0 0   XYZ
    dof rx ry rz
    limits (-20.0 45.0)
           (-30.0 30.0)
           (-30.0 30.0)
  end
  begin
     id 12 
     name upperback
     direction 0.0370973 0.999169 -0.0168941   
     length 2.24876   
     axis 0 0 0   XYZ
    dof rx ry rz
    limits (-20.0 45.0)
           (-30.0 30.0)
           (-30.0 30.0)
  end
  begin
     id 13 
     name thorax
     direction 0.0402726 0.998931 0.0227027   
     length 2.26408   
     axis 0 0 0   XYZ
    dof rx ry rz
    limits (-20.0 45.0)
           (-30.0 30.0)
           (-30.0 30.0)
  end
  begin
     id 14 
     name lowerneck
     direction -0.0733697 0.98508 0.155675   
     length 1.58204   
     axis 0 0 0   XYZ
    dof rx ry rz
    limits (-20.0 45.0)
           (-30.0 30.0)
           (-30.0 30.0)
  end
  begin
     id 15 
     name upperneck
     direction 0.0426554 0.993501 -0.105526   
     length 1.61222   
     axis 0 0 0   XYZ
    dof rx ry rz
    limits (-20.0 45.0)
           (-30.0 30.0)
           (-30.0 30.0)
  end
  begin
     id 16
     name head
     direction 0.020792 0.998384 -0.0528868  
     length 1.61527  
     axis 0 0 0   XYZ
    dof rx ry rz
    limits (-20.0 45.0)
           (-30.0 30.0)
           (-30.0 30.0)
  end
  begin
     id 17 
     name lclavicle
     direction 0.967109 0.155462 -0.201325  
     length 3.59357  
     axis 0 0 0   XYZ
    dof ry rz
    limits (-20.0 10.0)
           (0.0 20.0)
  end
  begin
     id 18 
     name lhumerus
     direction 1 -4.48968e-011 2.38195e-027   
     length 5.38154   
     axis 180 -30 -90   XYZ
    dof rx ry rz
    limits (-60.0 90.0)
           (-90.0 90.0)
           (-90.0 90.0)
  end
  begin
     id 19
     name lradius
     direction 1 -4.48961e-011 4.85371e-027   
     length 3.33312   
     axis 180 -30 -90   XYZ
    dof rx
    limits (-10.0 170.0)
  end
  begin
     id 20
     name lwrist
     direction 1 -4.48961e-011 4.76515e-027   
     length 1.66656   
     axis -3.27502e-015 90 90   XYZ
    dof ry
    limits (-180.0 0.0)
 end
  begin
     id 21 
     name lhand
     direction 1 -4.48951e-011 9.53074e-027   
     length 0.710789   
     axis -6.08098e-015 90 90   XYZ
    dof rx rz
    limits (-90.0 90.0)
           (-45.0 45.0)
  end
  begin
     id 22 
     name lfingers
     direction 1 -4.48953e-011 1.90613e-026   
     length 0.573057   
     axis -1.21619e-014 90 90   XYZ
    dof rx
    limits (0.0 90.0)
  end
  begin
     id 23
     name lthumb
     direction 0.707107 -6.34973e-011 0.707107   
     length 0.822798   
     axis -90 45 -9.86923e-015   XYZ
    dof rx rz
    limits (-45.0 45.0)
           (-45.0 45.0)
  end
  begin
     id 24 
     name rclavicle
     direction -0.9585 0.265289 -0.104398   
     length 3.42039  
     axis 0 0 0   XYZ 
    dof ry rz
    limits (-10.0 20.0)
           (-20.0 0.0)
  end
  begin
     id 25 
     name rhumerus
     direction -1 -4.48977e-011 2.21478e-027  
     length 5.16954   
     axis 180 30 90   XYZ
    dof rx ry rz
    limits (-90.0 60.0)
           (-90.0 90.0)
           (-90.0 90.0)
  end
  begin
     id 26 
     name rradius
     direction -1 -4.48967e-011 5.63677e-027   
     length 3.38287   
     axis 180 30 90   XYZ
    dof rx
    limits (-10.0 170.0)
  end
  begin
     id 27 
     name rwrist
     direction -1 -4.48967e-011 4.76501e-027   
     length 1.69144   
     axis -3.27502e-015 -90 -90   XYZ
    dof ry
    limits (-180.0 0.0)
  end
  begin
     id 28
     name rhand
     direction -1 -4.48902e-011 9.53292e-027   
     length 0.817967   
     axis -6.08098e-015 -90 -90   XYZ
    dof rx rz
    limits (-90.0 90.0)
           (-45.0 45.0)
  end
  begin
     id 29
     name rfingers
     direction -1 -4.49012e-011 1.90561e-026   
     length 0.659466   
     axis -1.21619e-014 -90 -90   XYZ
    dof rx
    limits (0.0 90.0)
  end
  begin
     id 30
     name rthumb
     direction -0.707107 -6.34944e-011 0.707107   
     length 0.946865   
     axis -90 -45 9.86923e-015   XYZ
    dof rx rz
    limits (-45.0 45.0)
           (-45.0 45.0)
  end
:hierarchy
  begin
    root lhipjoint rhipjoint lowerback
    lhipjoint lfemur
    lfemur ltibia
    ltibia lfoot
    lfoot ltoes
    rhipjoint rfemur
    rfemur rtibia
    rtibia rfoot
    rfoot rtoes
    lowerback upperback
    upperback thorax
    thorax lowerneck lclavicle rclavicle
    lowerneck upperneck
    upperneck head
    lclavicle lhumerus
    lhumerus lradius
    lradius lwrist
    lwrist lhand lthumb
    lhand lfingers
    rclavicle rhumerus
    rhumerus rradius
    rradius rwrist
    rwrist rhand rthumb
    rhand rfingers
  end

#!OML:ASF F:\twosubjects\two\wednesday\Session 1\Justin1.ASF
:FULLY-SPECIFIED
:DEGREES
115
root 12.995 17.832 1.90841 1.20156 19.2361 -7.27609
lowerback 2.28608 2.89838 4.68454
upperback 0.948148 3.98876 3.00664
thorax -0.201178 2.00438 0.376594
lowerneck -1.3645 -15.2883 -16.3313
upperneck 15.8337 -22.9666 17.7853
head 9.20737 -10.87 5.99482
rclavicle 1.09978e-013 3.57812e-014
rhumerus -35.564 -23.9125 -69.2074
rradius 24.6635
rwrist -21.9613
rhand -27.8934 17.3079
rfingers 7.12502
rthumb -1.28291 -12.6679
lclavicle 1.09978e-013 3.57812e-014
lhumerus -43.4803 24.3501 64.9368
lradius 28.1491
lwrist -10.2098
lhand -0.493487 35.8346
lfingers 7.12502
lthumb 25.1176 64.2024
rfemur 4.71274 -5.11436 32.1049
rtibia 11.0905
rfoot -12.2019 -4.78835
rtoes -1.93817
lfemur -30.5943 -0.811008 -8.25955
ltibia 38.9409
lfoot -11.722 2.75445
ltoes -13.9889
116
root 13.0319 17.8256 2.05138 1.38553 19.1709 -7.29998
lowerback 2.12231 2.95528 4.67305
upperback 1.08425 4.04534 2.97847
thorax 0.033305 2.03792 0.367779
lowerneck -1.42196 -15.336 -16.5212
upperneck 15.5319 -23.0518 18.1839
head 9.21114 -10.902 6.13191
rclavicle 7.56873e-014 2.70347e-014
rhumerus -36.2143 -23.1975 -69.7352
rradius 25.8021
rwrist -23.6412
rhand -23.4498 15.5356
rfingers 7.12502
rthumb 3.00873 -14.4229
lclavicle 7.56873e-014 2.70347e-014
lhumerus -43.493 25.0975 64.8356
lradius 27.8757
lwrist -10.9149
lhand -0.433052 35.4633
lfingers 7.12502
lthumb 25.1755 63.823
rfemur 5.82414 -5.07889 32.1764
rtibia 9.60878
rfoot -11.5773 -4.91395
rtoes -3.93816
lfemur -31.1595 -0.902204 -8.25599
ltibia 37.2021
lfoot -11.2581 2.55457
ltoes -13.9447
117
root 13.0642 17.8275 2.19065 1.65878 19.238 -6.70474
lowerback 2.22743 3.0622 4.18436
upperback 1.12547 4.18127 2.73243
thorax 0.00372686 2.10397 0.378586
lowerneck -1.14518 -15.4861 -16.7737
upperneck 15.1376 -23.3031 18.5822
head 9.16463 -11.0391 6.27179
rclavicle 6.02318e-014 -1.11319e-014
rhumerus -36.9192 -23.107 -69.9626
rradius 26.4452
rwrist -24.6746
rhand -19.2432 13.7929
rfingers 7.12502
rthumb 7.07043 -16.069
lclavicle 6.02318e-014 -1.11319e-014
lhumerus -43.3357 25.0969 65.0172
lradius 27.4057
lwrist -11.3329
lhand -0.391562 34.9957
lfingers 7.12502
lthumb 25.2153 63.3498
rfemur 6.96937 -5.20601 31.5808
rtibia 8.2151
rfoot -11.1738 -4.86397
rtoes -3.64431
lfemur -31.5589 -1.3418 -8.8669
ltibia 35.4592
lfoot -11.0813 2.507
ltoes -14.9789
118
root 13.0935 17.8281 2.33098 1.88499 19.1394 -6.42129
lowerback 2.25406 3.23355 3.97541
upperback 1.11898 4.40533 2.51982
thorax -0.011613 2.21483 0.271154
lowerneck -0.97547 -15.7814 -16.7632
upperneck 15.0723 -23.7149 18.4928
head 9.17876 -11.2485 6.17153
rclavicle -8.33902e-014 5.76476e-015
rhumerus -37.4173 -23.1952 -70.2525
rradius 26.4227
rwrist -25.2423
rhand -15.798 12.9717
rfingers 7.12502
rthumb 10.395 -16.7514
lclavicle -8.33902e-014 5.76476e-015
lhumerus -43.0582 23.9433 65.8147
lradius 27.3232
lwrist -10.6204
lhand -0.198568 35.3485
lfingers 7.12502
lthumb 25.4002 63.6764
rfemur 8.04261 -5.15231 31.2722
rtibia 6.73444
rfoot -10.5865 -4.63232
rtoes -3.74164
lfemur -31.9867 -1.75659 -9.06905
ltibia 33.7868
lfoot -10.9995 2.45705
ltoes -15.4766
119
root 13.1173 17.822 2.47853 2.06009 18.8836 -6.52385
lowerback 2.31572 3.29167 3.85279
upperback 1.01155 4.48826 2.48872
thorax -0.161472 2.25279 0.297168
lowerneck -0.867665 -15.8482 -16.9342
upperneck 15.1973 -23.8625 18.6047
head 9.27047 -11.3229 6.2119
rclavicle 1.22004e-014 -5.56597e-015
rhumerus -37.788 -22.7136 -70.8972
rradius 26.4859
rwrist -25.1062
rhand -12.9413 12.8325
rfingers 7.12502
rthumb 13.1498 -16.7328
lclavicle 1.22004e-014 -5.56597e-015
lhumerus -43.2806 23.2496 66.1836
lradius 27.4643
lwrist -9.92993
lhand 0.0606834 35.8924
lfingers 7.12502
lthumb 25.6485 64.1848
rfemur 9.25337 -4.92758 31.4098
rtibia 4.92685
rfoot -9.68367 -4.39801
rtoes -3.49645
lfemur -32.5124 -2.15011 -8.72541
ltibia 32.2185
lfoot -10.9999 2.24195
ltoes -13.7046
